<svg version="1.0" xmlns="http://www.w3.org/2000/svg"
     width="32" height="32" class="stroke-red-500"
     viewBox="0 0 600.000000 600.000000">

    <g transform="translate(0.000000,600.000000) scale(0.100000,-0.100000)"
       stroke="none">
        <path d="M2760 5549 c-464 -51 -907 -223 -1275 -495 -98 -72 -276 -232 -362
-325 -377 -408 -604 -907 -669 -1469 -20 -174 -15 -523 10 -690 45 -299 147
-598 291 -849 453 -795 1306 -1291 2225 -1294 524 -1 1032 149 1452 430 413
275 755 686 931 1118 212 518 251 1095 111 1647 -84 333 -263 693 -484 973
-96 122 -322 340 -457 442 -345 260 -737 426 -1161 494 -147 23 -478 33 -612
18z m170 -122 c0 -2 -11 -18 -25 -37 -22 -30 -26 -58 -6 -46 4 3 6 -24 3 -59
-4 -58 -2 -66 21 -89 33 -33 70 -41 108 -26 44 19 62 51 57 104 -2 34 1 48 14
57 15 11 14 16 -13 48 -16 20 -29 39 -29 43 0 11 107 10 114 0 3 -5 -1 -26 -9
-48 -9 -24 -14 -81 -15 -151 l0 -113 -154 0 -154 0 -4 123 c-3 85 -9 132 -20
154 -11 23 -13 33 -4 37 12 5 116 8 116 3z m-227 -63 l37 -35 0 -110 0 -109
-155 0 -155 0 0 125 0 124 38 10 c156 40 188 40 235 -5z m727 26 c25 -6 64
-15 88 -21 l42 -12 0 -123 0 -124 -155 0 -155 0 0 111 0 112 36 33 c39 37 64
41 144 24z m-409 -50 c22 -12 26 -59 7 -78 -19 -19 -55 -14 -72 10 -20 29 -20
34 4 58 23 23 33 24 61 10z m-691 -120 l0 -110 -26 0 c-60 0 -141 -64 -163
-129 -7 -23 -11 -151 -11 -387 l0 -354 -30 0 -30 0 0 499 0 499 103 40 c91 36
124 47 150 51 4 0 7 -48 7 -109z m1482 62 l103 -39 3 -501 2 -502 -30 0 -29 0
-3 374 -3 374 -31 38 c-45 55 -76 76 -128 81 l-46 6 0 110 0 110 30 -6 c16 -4
76 -24 132 -45z m-1833 -604 l1 -438 -128 0 c-153 0 -226 -16 -293 -65 -52
-39 -105 -114 -115 -164 -7 -33 -20 -44 -66 -55 -27 -6 -28 -5 -28 33 0 36 10
49 140 190 77 83 140 159 140 168 0 10 41 59 91 109 l90 91 -25 17 c-17 11
-26 26 -26 44 -1 21 -17 41 -78 93 -71 60 -80 65 -97 53 -10 -8 -28 -14 -39
-14 -12 0 -53 -32 -99 -77 -59 -58 -76 -80 -71 -95 3 -10 -1 -30 -10 -43 -14
-21 -14 -24 0 -29 49 -19 104 5 104 44 0 19 94 110 114 110 7 0 32 -20 56 -45
l44 -45 -77 -78 c-69 -70 -77 -82 -71 -106 7 -29 -17 -66 -44 -66 -8 0 -23
-12 -35 -26 -11 -14 -54 -62 -96 -106 -92 -97 -100 -111 -101 -169 l0 -46 -80
-5 c-109 -6 -162 -39 -207 -126 -31 -61 -32 -61 -47 -40 -22 31 -21 34 28 89
25 27 47 62 51 78 3 15 19 38 35 50 40 29 42 77 4 91 -69 26 -124 -7 -124 -76
0 -25 -13 -48 -56 -98 -49 -58 -59 -66 -91 -66 -33 0 -35 1 -29 28 4 15 40 95
80 177 119 242 269 449 470 651 129 128 229 210 376 306 l105 69 3 -82 c3 -80
2 -83 -28 -110 -39 -36 -40 -76 -4 -113 33 -32 65 -33 101 -2 l27 24 1 168 0
167 45 24 45 24 7 -38 c4 -21 7 -235 7 -475z m2096 489 l40 -23 1 -159 c0 -88
3 -169 7 -181 7 -21 45 -44 73 -44 23 0 74 55 74 80 0 12 -13 35 -30 52 -29
28 -30 34 -30 114 0 46 3 84 6 84 4 0 50 -28 103 -63 287 -189 563 -472 746
-767 66 -107 172 -322 181 -369 6 -29 5 -31 -24 -31 -45 0 -138 103 -147 164
-4 27 -16 53 -30 66 -20 19 -30 21 -74 15 l-51 -7 0 -39 c0 -32 5 -41 29 -53
17 -9 32 -27 36 -43 3 -15 29 -51 56 -80 52 -55 54 -70 16 -101 -12 -10 -15
-7 -20 16 -9 42 -66 112 -111 135 -26 14 -66 22 -117 25 l-79 5 0 44 c0 59 -8
72 -112 182 -48 51 -88 100 -88 107 0 8 -9 14 -20 14 -32 0 -63 37 -55 68 5
22 -4 36 -70 102 -86 87 -87 90 -20 149 l37 32 41 -37 c54 -48 77 -74 77 -87
0 -34 60 -58 104 -41 14 5 14 8 0 29 -9 13 -14 33 -12 44 4 25 -148 182 -168
174 -8 -3 -25 2 -39 11 -25 17 -26 16 -100 -50 -41 -37 -74 -75 -73 -83 3 -38
-4 -52 -29 -62 l-27 -10 90 -92 c50 -51 95 -103 101 -117 6 -14 70 -89 142
-168 115 -126 131 -147 131 -178 0 -33 -1 -34 -38 -34 -39 0 -39 0 -55 59 -21
75 -86 149 -165 188 -54 26 -66 28 -214 32 l-158 3 0 474 c0 373 3 474 13 474
6 0 30 -11 52 -23z m-344 -203 l24 -26 0 -501 0 -502 -763 -3 -763 -2 3 504 3
504 24 26 24 26 712 0 712 0 24 -26z m-1781 -844 c0 -5 -13 -10 -29 -10 -29 0
-41 -14 -41 -50 0 -26 19 -30 141 -30 l109 0 0 -50 0 -50 -34 0 c-44 0 -68
-23 -64 -64 l3 -31 1113 -3 1112 -2 0 -150 0 -150 -530 0 -530 0 0 55 0 55
494 0 c272 0 501 3 510 6 11 4 16 19 16 50 l0 44 -585 0 c-583 0 -584 0 -595
-21 -18 -33 -4 -69 30 -76 21 -4 30 -11 30 -24 0 -17 -9 -19 -104 -19 -80 0
-105 3 -109 14 -7 18 1 26 28 26 31 0 47 23 43 62 l-3 33 -607 3 -608 2 0 45
0 44 116 3 c108 3 117 5 125 24 4 12 2 31 -5 45 -11 23 -17 24 -117 27 l-105
3 4 60 c6 75 -6 91 -45 63 -16 -11 -38 -40 -50 -64 -22 -42 -23 -56 -23 -252
l0 -208 -27 0 c-16 0 -38 -3 -51 -6 l-23 -7 3 230 3 230 28 41 c36 55 94 92
159 102 80 11 218 12 218 0z m2368 -15 c55 -22 117 -93 131 -150 6 -25 11
-129 11 -241 l0 -196 -31 6 c-17 3 -40 6 -50 6 -16 0 -18 16 -21 213 -3 192
-5 216 -24 252 -22 42 -76 81 -95 70 -7 -5 -9 -28 -4 -71 l7 -64 -191 0 -191
0 0 50 0 50 118 0 c64 0 123 4 130 9 8 5 12 21 10 37 -3 26 -7 29 -40 32 -21
2 -38 8 -38 14 0 18 227 4 278 -17z m-2878 -400 l0 -235 -45 0 -45 0 0 215 c0
202 1 216 20 235 11 11 31 20 45 20 l25 0 0 -235z m3189 209 c19 -24 21 -40
21 -168 0 -77 -3 -171 -7 -208 l-6 -68 -37 0 -37 0 -6 128 c-4 70 -7 175 -7
235 l0 107 29 0 c20 0 36 -9 50 -26z m-3381 -271 l-3 -198 -62 0 c-55 0 -66 4
-90 28 -27 26 -28 32 -31 148 -4 132 4 167 46 199 18 15 40 20 84 20 l58 0 -2
-197z m3648 163 l34 -34 0 -131 c0 -130 0 -131 -29 -163 -24 -27 -36 -32 -90
-36 l-61 -4 0 201 0 201 56 0 c50 0 59 -3 90 -34z m-4044 -85 c27 -24 33 -36
33 -71 0 -35 -6 -47 -33 -71 -55 -49 -123 -35 -158 32 -20 40 -10 82 28 114
41 35 88 33 130 -4z m4407 14 c83 -43 52 -185 -41 -185 -95 0 -144 106 -79
171 33 33 75 38 120 14z m-2469 -150 l0 -55 -525 0 -525 0 0 55 0 55 525 0
525 0 0 -55z m-2122 -231 c-3 -134 4 -154 52 -154 25 0 28 -4 33 -42 4 -32 15
-51 41 -76 l36 -32 0 -123 c0 -67 4 -127 8 -132 4 -6 27 -17 51 -24 44 -13 52
-19 144 -119 27 -29 52 -52 55 -52 21 0 52 34 52 56 0 14 4 22 10 19 6 -4 10
10 10 35 0 39 1 41 28 38 l27 -3 3 -114 3 -114 -23 8 c-13 4 -39 8 -58 9 l-35
1 0 -62 c0 -57 2 -63 21 -63 12 0 36 -3 53 -6 30 -6 31 -9 31 -55 l0 -49 -35
0 c-20 0 -58 11 -85 25 l-50 25 0 98 0 98 -67 65 c-75 73 -131 109 -169 109
-41 0 -83 57 -54 75 16 10 11 28 -19 65 -26 31 -36 35 -88 40 l-58 5 -3 43 -3
42 70 0 c76 0 101 13 101 55 0 42 -25 55 -102 55 l-71 0 6 99 c6 84 23 202 43
290 5 23 5 23 25 5 19 -17 20 -28 17 -140z m334 39 c13 -14 40 -34 61 -44 l38
-20 -20 -33 c-26 -42 -26 -68 -1 -91 27 -24 64 -13 80 25 9 23 19 30 39 30
l26 0 -5 -107 c-4 -94 -7 -108 -22 -108 -10 0 -72 59 -138 130 l-120 130 1
105 0 105 19 -49 c11 -27 29 -60 42 -73z m2031 105 c12 -10 17 -32 19 -88 l3
-75 32 -3 c30 -3 33 0 43 37 11 41 11 41 60 41 40 0 51 -4 60 -21 27 -49 -30
-143 -112 -186 -46 -24 -64 -28 -143 -28 -82 0 -95 3 -145 31 -87 49 -146 154
-108 192 16 16 93 15 105 0 6 -7 13 -26 17 -41 6 -25 11 -28 39 -25 l32 3 3
75 c3 80 14 100 57 100 12 0 29 -6 38 -12z m2341 -25 c16 -93 35 -244 38 -303
l3 -65 -78 -5 c-82 -5 -97 -14 -97 -57 0 -39 26 -54 94 -51 71 2 86 -4 86 -37
0 -48 -9 -55 -66 -55 -48 0 -58 -4 -94 -36 -40 -36 -40 -36 -23 -64 15 -27 15
-30 -1 -55 -14 -21 -24 -26 -43 -22 -33 6 -88 -31 -175 -120 l-67 -68 -3 -90
-3 -89 -34 -23 c-43 -29 -73 -37 -106 -29 -51 13 -21 90 40 102 35 6 35 7 35
60 0 30 1 57 3 62 4 14 -42 13 -72 -3 l-31 -16 0 121 0 120 25 0 c23 0 25 -4
25 -40 0 -22 4 -40 9 -40 5 0 11 -10 13 -22 2 -12 15 -29 30 -38 l28 -15 75
82 c55 60 86 85 117 95 52 18 56 28 57 171 l1 108 41 39 c38 36 41 42 36 78
l-7 38 34 -4 c54 -6 65 20 61 153 -2 84 1 115 12 132 21 32 29 29 37 -14z
m-324 -72 c0 -66 -4 -104 -12 -113 -7 -8 -40 -43 -73 -79 -33 -35 -82 -88
-108 -117 -27 -29 -54 -52 -62 -52 -17 0 -27 211 -11 222 23 16 46 8 46 -15 0
-13 5 -28 12 -35 19 -19 63 -14 83 8 18 19 18 22 2 56 -23 47 -22 57 12 77 42
24 91 84 98 118 3 16 7 29 9 29 2 0 4 -45 4 -99z m-4210 -30 c0 -102 -16 -76
179 -299 83 -94 134 -144 150 -148 46 -10 51 -13 51 -33 0 -28 -12 -32 -75
-25 l-56 7 -82 95 c-45 53 -115 133 -156 180 -82 93 -90 114 -91 240 l0 72 40
0 40 0 0 -89z m4388 -21 l-6 -110 -83 -94 c-46 -52 -115 -133 -154 -180 -72
-89 -79 -94 -155 -98 -42 -3 -45 -1 -48 25 -3 23 0 27 24 27 31 0 54 23 227
219 l117 134 0 94 0 93 41 0 42 0 -5 -110z m-3020 55 c52 -22 81 -52 93 -97
12 -48 -2 -101 -34 -123 -31 -21 -80 -19 -102 5 -10 11 -29 20 -42 20 -23 0
-63 -31 -63 -50 0 -31 26 -61 62 -70 27 -8 43 -20 54 -41 8 -17 52 -70 97
-117 308 -322 788 -401 1187 -196 141 72 305 219 358 320 6 11 28 26 50 32 45
14 67 48 53 86 -16 40 -66 49 -96 16 -22 -24 -72 -26 -102 -5 -12 9 -27 31
-32 50 -20 73 28 153 105 174 50 14 492 15 565 1 116 -22 234 -113 282 -217
20 -44 22 -67 25 -250 l3 -203 -60 0 -61 0 0 -50 c0 -48 1 -50 28 -50 67 0 92
-51 92 -193 0 -48 9 -233 21 -410 11 -177 21 -405 22 -507 2 -211 -3 -230 -77
-334 -97 -136 -239 -229 -383 -251 l-43 -7 0 141 0 141 48 0 c68 0 134 25 187
72 56 50 90 105 110 184 14 56 14 87 -8 415 -13 195 -22 386 -19 426 l4 72
-50 50 c-53 53 -96 71 -170 71 -56 0 -128 -18 -143 -36 -17 -21 -57 -17 -98 9
-30 18 -50 22 -121 22 -69 0 -93 -4 -128 -22 -53 -29 -71 -29 -119 0 -32 18
-53 22 -128 22 -75 0 -96 -4 -128 -22 -47 -28 -77 -29 -119 -3 -48 29 -218 29
-266 0 -18 -11 -44 -20 -57 -20 -13 0 -39 9 -57 20 -48 29 -217 29 -271 0 -48
-26 -71 -25 -116 2 -30 19 -50 23 -126 23 -74 0 -98 -4 -133 -22 -23 -13 -51
-23 -62 -23 -10 0 -36 10 -57 23 -31 18 -53 22 -123 22 -69 0 -93 -4 -128 -22
-53 -28 -76 -29 -113 -2 -37 26 -146 36 -209 19 -31 -8 -60 -27 -92 -60 l-48
-47 0 -101 c0 -55 -9 -225 -21 -379 -11 -153 -19 -318 -17 -368 3 -79 8 -98
38 -153 56 -106 139 -163 248 -170 l62 -4 0 -134 c0 -73 -3 -135 -7 -137 -19
-10 -140 25 -201 59 -87 48 -220 180 -255 254 -45 93 -50 149 -37 405 6 127
18 322 26 434 8 112 14 245 14 295 0 187 22 246 90 246 29 0 30 1 30 50 l0 50
-61 0 -61 0 4 198 c3 189 4 199 30 254 50 106 140 180 259 212 81 22 545 22
597 1z m422 -23 c0 -104 81 -217 198 -274 62 -31 74 -33 167 -33 87 0 107 3
157 27 116 54 191 153 205 269 l6 49 43 0 c40 0 44 -2 44 -25 0 -16 -6 -25
-15 -25 -8 0 -15 -6 -15 -14 0 -9 22 -21 53 -31 99 -31 107 -36 107 -61 0 -13
-1 -24 -3 -24 -2 0 -37 11 -77 25 -85 29 -100 30 -100 10 0 -16 -3 -14 160
-110 63 -37 116 -69 118 -70 6 -5 -11 -35 -21 -35 -5 0 -58 29 -116 64 -160
95 -170 100 -177 81 -4 -9 -5 -17 -3 -18 31 -22 239 -201 239 -207 0 -4 -6
-13 -13 -19 -11 -8 -33 6 -102 65 -101 86 -149 124 -158 124 -23 0 4 -42 88
-137 52 -59 95 -111 95 -115 0 -4 -8 -12 -18 -17 -15 -8 -26 1 -67 52 -81 99
-146 167 -156 162 -12 -8 -2 -29 73 -149 59 -95 67 -112 54 -124 -8 -8 -18
-12 -23 -9 -5 3 -40 58 -77 121 -37 64 -72 118 -77 122 -25 15 -15 -35 29
-147 28 -68 48 -127 45 -131 -2 -5 -12 -8 -21 -8 -12 0 -30 34 -67 127 -48
121 -75 162 -75 111 0 -12 13 -76 29 -140 15 -65 26 -120 23 -123 -3 -3 -13
-5 -23 -5 -14 0 -22 19 -38 91 -12 50 -24 108 -27 130 -7 41 -20 57 -34 43 -4
-5 -4 -67 1 -139 6 -98 5 -131 -4 -137 -6 -4 -15 -4 -19 0 -6 6 -27 203 -28
260 0 6 -6 12 -14 12 -14 0 -18 -20 -31 -192 -6 -70 -9 -78 -27 -78 -20 0 -20
4 -14 118 4 65 8 126 9 137 1 12 -4 20 -13 20 -11 0 -23 -34 -44 -132 -23
-106 -33 -133 -46 -133 -9 0 -19 2 -22 5 -3 3 8 62 24 132 29 126 30 177 4
141 -7 -10 -33 -69 -57 -133 -24 -63 -48 -115 -54 -115 -37 0 -35 18 15 139
27 67 50 129 50 137 0 34 -28 2 -97 -112 -67 -110 -83 -127 -106 -105 -4 4 24
57 62 118 38 61 71 117 73 125 9 39 -27 11 -112 -89 -79 -92 -98 -109 -112
-102 -10 6 -18 13 -18 17 0 4 43 56 95 116 88 101 110 136 85 136 -10 0 -41
-25 -162 -133 -69 -62 -79 -67 -93 -54 -8 9 -15 18 -15 20 0 3 54 51 120 107
66 56 120 105 120 110 0 26 -30 15 -128 -44 -59 -36 -120 -74 -136 -85 -30
-20 -30 -20 -44 1 -12 17 -13 22 -1 29 8 5 71 44 142 86 118 71 152 103 110
103 -10 0 -40 -8 -68 -19 -97 -36 -95 -36 -95 -2 0 17 5 31 11 31 6 0 42 10
80 21 54 16 69 25 67 38 -2 9 -11 15 -21 15 -12 -1 -17 6 -17 22 0 22 4 24 50
24 l50 0 0 -38z m-1648 -509 c29 -31 70 -74 91 -95 l39 -39 -29 7 c-15 3 -37
17 -48 30 -11 12 -38 30 -60 40 -22 9 -43 21 -47 28 -8 12 -11 86 -4 86 3 0
29 -26 58 -57z m4078 12 c0 -44 -1 -45 -50 -70 -28 -14 -56 -34 -62 -45 -7
-11 -21 -20 -30 -20 -15 0 -14 3 5 24 12 13 47 53 77 89 30 36 56 66 58 66 1
1 2 -19 2 -44z m334 -91 c20 -8 23 -103 4 -122 -7 -7 -29 -12 -51 -12 -48 0
-90 -39 -106 -97 -8 -29 -22 -48 -49 -67 -21 -14 -49 -41 -63 -59 -23 -31 -24
-40 -29 -219 -5 -180 -6 -187 -29 -212 -21 -22 -33 -26 -84 -26 -60 0 -60 0
-118 -57 l-57 -58 -6 50 c-3 28 -6 84 -6 125 0 69 3 80 35 131 36 58 56 69
137 69 17 0 34 10 47 26 18 23 21 41 21 127 l0 101 37 38 c27 28 45 38 68 38
42 0 69 21 112 88 43 68 102 142 113 142 5 0 15 -3 24 -6z m-4701 -72 c26 -37
58 -83 71 -102 16 -25 29 -34 45 -33 12 2 20 -1 17 -6 -4 -5 3 -7 15 -4 14 4
31 -4 55 -28 38 -36 66 -78 43 -64 -9 6 -10 4 -3 -6 5 -8 11 -55 14 -106 7
-119 18 -133 104 -133 l61 0 42 -67 43 -67 -6 -85 c-3 -47 -7 -101 -10 -120
l-6 -34 -52 56 -52 57 -64 0 c-52 0 -68 4 -87 22 -22 21 -23 27 -23 194 0 97
-5 185 -11 201 -13 34 -64 90 -101 109 -17 9 -28 23 -28 35 0 58 -62 119 -122
119 -32 0 -40 4 -48 26 -6 14 -10 43 -10 65 0 37 1 39 33 38 28 0 38 -9 80
-67z m-52 -173 c20 -14 29 -29 29 -48 0 -22 16 -43 70 -95 l70 -66 0 -166 c0
-134 3 -173 17 -201 24 -51 76 -82 147 -87 l58 -4 74 -78 c63 -69 73 -84 74
-116 0 -21 -3 -38 -7 -38 -15 0 -116 86 -126 107 -15 33 -74 33 -86 1 -13 -34
-3 -48 84 -127 137 -125 135 -122 135 -197 0 -36 -4 -64 -9 -62 -16 6 -139
157 -204 250 -171 247 -290 528 -346 822 -28 144 -29 140 20 105z m4729 -113
c-59 -293 -159 -537 -315 -771 -75 -112 -212 -286 -230 -292 -6 -2 -9 23 -7
67 l4 70 111 105 c104 100 110 107 101 133 -6 19 -18 28 -36 30 -21 3 -40 -11
-98 -67 -40 -39 -76 -68 -81 -65 -5 3 -9 21 -9 41 0 30 10 46 75 113 73 74 78
78 131 83 66 7 111 31 141 77 22 31 23 43 23 204 l0 171 70 63 c54 49 70 69
70 91 0 30 15 53 45 69 29 16 30 -1 5 -122z m-3648 -26 c80 -23 102 -98 44
-156 -29 -29 -41 -34 -83 -34 -57 0 -90 19 -109 65 -23 57 5 104 76 126 34 10
31 10 72 -1z m405 -15 c42 -28 56 -60 43 -99 -6 -20 -23 -45 -37 -56 -46 -36
-147 -19 -173 29 -51 96 72 188 167 126z m350 15 c6 0 25 -12 42 -26 33 -28
42 -75 21 -115 -26 -48 -127 -65 -173 -29 -37 30 -52 81 -33 117 19 38 73 66
111 58 11 -3 25 -5 32 -5z m410 -16 c13 -8 30 -25 39 -39 36 -54 -27 -135
-106 -135 -114 0 -156 135 -56 181 44 20 84 18 123 -7z m380 0 c60 -38 65 -93
13 -145 -22 -23 -38 -29 -70 -29 -73 0 -119 39 -120 101 0 46 16 66 65 84 43
15 76 11 112 -11z m383 -3 c14 -10 31 -30 38 -45 12 -23 11 -32 -5 -64 -10
-20 -29 -42 -43 -49 -65 -33 -151 -1 -169 62 -14 50 3 83 54 106 45 21 86 18
125 -10z m367 3 c90 -56 46 -174 -64 -174 -90 0 -148 103 -89 159 43 40 103
46 153 15z m370 0 c90 -57 46 -174 -64 -174 -38 0 -50 5 -79 34 -92 92 31 211
143 140z m-2438 -282 c64 -47 21 -127 -69 -127 -65 0 -105 29 -105 76 0 70
106 102 174 51z m356 14 c65 -27 72 -85 15 -124 -27 -18 -44 -23 -74 -19 -92
12 -124 89 -57 134 39 27 68 29 116 9z m380 0 c70 -30 69 -103 -2 -132 -96
-41 -200 50 -130 113 39 36 77 41 132 19z m380 -2 c68 -32 67 -102 0 -130 -44
-18 -69 -18 -110 2 -66 31 -67 101 -2 129 42 19 72 18 112 -1z m395 -12 c34
-26 38 -73 9 -101 -62 -58 -189 -21 -189 55 0 63 117 93 180 46z m389 0 c37
-27 36 -77 -2 -106 -60 -45 -168 -15 -175 48 -4 30 19 62 53 77 30 13 95 3
124 -19z m381 0 c35 -26 38 -71 6 -101 -51 -48 -159 -29 -181 32 -26 75 100
124 175 69z m-2485 -182 c15 -16 44 -35 63 -41 49 -16 128 -4 174 26 l38 25 0
-63 c0 -35 -3 -66 -6 -69 -3 -4 -21 0 -39 8 -47 19 -139 18 -182 -3 -19 -9
-48 -34 -64 -56 l-29 -40 0 121 c0 67 4 122 8 122 5 0 21 -13 37 -30z m1192
-36 c59 -26 147 -11 195 33 17 15 18 13 18 -55 0 -79 -8 -87 -60 -57 -38 22
-138 19 -182 -5 -20 -11 -39 -16 -41 -12 -11 17 -18 94 -12 121 l6 30 22 -20
c12 -12 36 -28 54 -35z m709 35 c46 -52 133 -63 207 -25 l47 23 0 -57 c0 -74
-15 -89 -62 -60 -40 24 -149 27 -188 5 -14 -8 -28 -14 -32 -15 -5 0 -8 34 -8
75 0 41 4 75 8 75 5 0 17 -10 28 -21z m450 -39 c45 -15 102 -8 154 19 l40 21
0 -102 0 -103 -31 38 c-17 21 -44 44 -59 52 -38 20 -143 19 -180 0 l-30 -16 0
69 c0 38 3 72 6 75 4 4 20 -4 35 -17 16 -14 45 -30 65 -36z m-1947 24 c69 -45
163 -41 219 9 l22 20 0 -71 c0 -40 -3 -72 -7 -72 -5 1 -19 7 -33 15 -40 23
-148 19 -189 -6 -33 -20 -35 -20 -48 -3 -12 17 -19 134 -8 134 3 0 23 -12 44
-26z m357 15 c11 -19 87 -49 125 -49 19 0 58 11 85 25 27 14 50 25 52 25 7 0
0 -120 -8 -125 -5 -3 -23 1 -39 10 -44 22 -148 20 -187 -4 -43 -26 -54 -12
-54 66 0 59 10 78 26 52z m867 -47 c42 -3 61 1 100 22 l47 25 0 -57 c0 -74
-10 -85 -58 -61 -44 23 -129 25 -179 4 -19 -8 -37 -15 -39 -15 -2 0 -4 32 -4
70 l0 70 41 -27 c27 -17 58 -28 92 -31z m1080 -167 c13 -149 11 -205 -10 -205
-5 0 -20 16 -35 34 l-28 35 0 178 0 178 29 -30 c29 -29 30 -35 44 -190z
m-2864 -160 c-57 -85 -66 -58 -50 154 12 161 14 167 39 188 l27 23 6 -163 5
-162 -27 -40z m370 170 c44 -22 56 -78 23 -108 -48 -43 -123 -43 -167 0 -34
34 -32 65 6 97 35 30 93 35 138 11z m370 0 c68 -35 48 -120 -32 -139 -40 -10
-102 10 -121 39 -24 36 -20 60 15 89 35 30 93 35 138 11z m380 -11 c52 -43 33
-105 -38 -124 -78 -21 -153 30 -137 93 14 58 121 77 175 31z m370 0 c53 -44
33 -105 -40 -124 -115 -31 -193 84 -94 138 38 21 101 14 134 -14z m362 -3 c16
-16 29 -38 29 -48 0 -49 -70 -91 -130 -78 -45 10 -80 42 -80 74 0 50 40 80
108 81 35 0 49 -6 73 -29z m348 14 c70 -36 47 -122 -36 -140 -64 -13 -133 28
-133 80 0 22 32 58 60 68 29 10 81 7 109 -8z m371 0 c94 -49 7 -164 -101 -135
-71 19 -90 81 -38 124 36 30 93 35 139 11z m-2387 -188 c9 -23 72 -47 124 -47
l48 -1 -35 -29 c-34 -29 -38 -29 -147 -30 -108 0 -113 1 -113 21 0 33 32 79
55 79 11 0 27 5 35 10 20 13 27 12 33 -3z m2545 -33 c12 -14 22 -36 22 -50 l0
-24 -112 0 c-106 0 -113 1 -147 28 l-36 27 61 6 c41 4 72 13 90 27 37 28 89
22 122 -14z m-1867 -4 c32 0 61 4 64 10 4 6 17 4 35 -5 37 -19 120 -19 165 -1
19 8 35 11 35 5 0 -12 113 -12 126 1 7 7 20 6 40 -5 37 -19 124 -19 169 -1 21
9 37 11 40 5 8 -12 112 -12 120 1 4 6 17 4 35 -5 16 -8 52 -15 80 -15 28 0 64
7 80 15 20 10 31 12 35 4 4 -6 41 -10 89 -10 44 0 113 -1 151 -2 39 -1 78 2
88 7 16 8 18 4 15 -30 l-3 -39 -817 -3 -817 -2 -7 35 c-8 43 -3 50 24 36 28
-15 110 -13 147 3 17 8 34 10 40 5 5 -5 35 -9 66 -9z m-451 -187 c0 -64 37
-125 98 -160 l47 -28 829 -3 c926 -3 890 -5 959 66 42 43 57 78 57 133 l0 39
175 0 c96 0 175 -3 175 -7 0 -4 -10 -17 -22 -30 -19 -20 -31 -23 -97 -23 -42
0 -82 -4 -88 -8 -9 -6 -13 -57 -15 -177 l-3 -170 -1122 -3 -1123 -2 0 180 0
180 -90 0 c-77 0 -93 3 -110 20 -11 11 -20 25 -20 30 0 6 65 10 175 10 l175 0
0 -47z m1888 -1 c2 -15 -8 -34 -31 -57 l-35 -35 -827 0 -827 0 -34 34 c-32 32
-43 64 -27 79 3 4 405 6 892 5 l886 -3 3 -23z m-852 -467 c33 -50 -20 -104
-71 -71 -29 19 -32 51 -8 78 23 26 59 23 79 -7z m-816 -25 c10 -6 31 -33 46
-61 35 -64 91 -99 157 -99 38 0 53 -6 79 -30 42 -38 31 -38 -116 0 -124 32
-265 82 -383 136 -55 25 -71 37 -67 48 5 13 28 16 136 16 71 0 138 -5 148 -10z
m458 -2 c5 -7 12 -46 14 -85 4 -72 4 -74 53 -124 l50 -52 -49 7 c-46 6 -55 12
-135 96 l-87 90 -51 0 c-68 0 -99 13 -118 50 l-16 30 165 0 c119 0 166 -3 174
-12z m182 -23 c0 -75 59 -135 133 -135 77 0 137 56 137 129 l0 41 40 0 40 0
-1 -52 c0 -29 -3 -61 -7 -70 -4 -9 -42 -48 -85 -87 -72 -66 -81 -71 -122 -71
-41 0 -51 6 -108 56 -100 91 -107 101 -107 167 l0 57 40 0 c39 0 40 -1 40 -35z
m780 20 c0 -9 -11 -27 -25 -40 -20 -21 -34 -25 -86 -25 l-63 0 -89 -92 c-85
-88 -90 -91 -139 -96 l-51 -5 42 38 c56 51 71 83 71 153 0 32 5 63 12 70 8 8
60 12 170 12 136 0 158 -2 158 -15z m416 4 c3 -6 0 -17 -7 -24 -20 -19 -188
-87 -318 -129 -106 -34 -282 -78 -289 -72 -10 11 64 56 91 56 86 0 152 42 192
120 13 27 30 50 37 53 27 11 287 7 294 -4z"/>
        <path d="M2547 5282 c-26 -28 -21 -69 9 -88 55 -37 117 25 80 80 -20 31 -65
35 -89 8z"/>
        <path d="M3357 5282 c-54 -59 28 -137 84 -81 21 21 20 59 -3 86 -15 19 -62 16
-81 -5z"/>
        <path d="M1795 4382 c-26 -68 45 -122 95 -72 22 22 23 25 14 57 -5 17 -15 22
-55 25 -34 2 -50 -1 -54 -10z"/>
        <path d="M1202 4344 c-43 -30 -21 -94 31 -94 40 0 57 15 57 51 0 27 -30 59
-55 59 -6 0 -21 -7 -33 -16z"/>
        <path d="M1066 4243 c-40 -41 -43 -51 -21 -59 9 -4 21 -17 28 -30 l13 -24 32
33 33 34 -24 42 -24 42 -37 -38z"/>
        <path d="M4084 4363 c-12 -45 24 -81 69 -69 32 8 51 39 43 72 -6 21 -12 24
-56 24 -45 0 -50 -2 -56 -27z"/>
        <path d="M4722 4344 c-24 -17 -30 -62 -10 -82 7 -7 27 -12 45 -12 34 0 53 21
53 59 0 19 -34 51 -55 51 -6 0 -21 -7 -33 -16z"/>
        <path d="M4880 4267 c0 -8 -10 -27 -21 -42 l-22 -27 31 -31 31 -30 30 32 31
33 -20 26 c-12 14 -30 32 -40 39 -17 12 -20 12 -20 0z"/>
        <path d="M3126 4758 c-21 -29 -20 -41 2 -61 24 -22 55 -21 75 1 21 23 22 46 1
66 -22 23 -60 20 -78 -6z"/>
        <path d="M2802 4602 c-11 -7 -159 -376 -183 -455 -6 -22 -4 -32 12 -48 10 -10
23 -19 28 -19 20 0 52 37 64 75 l14 40 86 3 87 3 24 -54 c13 -30 31 -57 41
-61 22 -8 65 19 65 41 0 9 -36 110 -80 224 -44 115 -80 212 -80 217 0 13 -35
42 -51 42 -8 0 -20 -4 -27 -8z m52 -234 c10 -29 21 -59 23 -65 4 -10 -9 -13
-47 -13 -37 0 -51 4 -48 13 3 6 13 36 23 65 11 28 22 52 25 52 3 0 14 -24 24
-52z"/>
        <path d="M3136 4594 c-24 -23 -24 -459 0 -492 18 -27 45 -28 67 -4 15 16 17
49 17 255 0 223 -1 237 -19 247 -27 14 -47 13 -65 -6z"/>
        <path d="M1602 3248 c-7 -7 -12 -24 -12 -38 0 -45 15 -50 142 -50 114 0 118 1
134 25 15 23 15 27 0 50 -16 24 -20 25 -134 25 -78 0 -122 -4 -130 -12z"/>
        <path d="M4142 3248 c-15 -15 -16 -60 0 -76 19 -19 63 -14 84 9 17 19 17 23 3
47 -16 30 -65 42 -87 20z"/>
        <path d="M4312 3248 c-15 -15 -16 -60 0 -76 19 -19 63 -14 84 9 17 19 17 23 3
47 -16 30 -65 42 -87 20z"/>
        <path d="M1632 3074 c-16 -11 -22 -24 -20 -42 5 -44 37 -53 181 -50 121 3 130
4 147 26 20 24 17 49 -8 70 -25 19 -271 17 -300 -4z"/>
        <path d="M4050 3070 c-23 -23 -25 -39 -7 -65 11 -15 32 -19 114 -23 56 -2 122
-1 147 2 72 11 95 47 56 86 -18 18 -33 20 -155 20 -122 0 -137 -2 -155 -20z"/>
        <path d="M2090 2918 c-30 -11 -40 -25 -40 -59 0 -55 68 -78 108 -36 26 27 27
45 7 74 -18 26 -43 33 -75 21z"/>
        <path d="M3841 2914 c-58 -24 -35 -114 29 -114 69 0 87 105 21 123 -10 2 -32
-2 -50 -9z"/>
        <path d="M4033 2919 c-43 -16 -55 -67 -23 -99 43 -43 110 -14 110 47 0 44 -41
69 -87 52z"/>
        <path d="M1877 2902 c-36 -40 -9 -102 44 -102 60 0 92 66 51 103 -25 22 -75
21 -95 -1z"/>
        <path d="M1510 2740 c-38 -38 -15 -90 40 -90 39 0 65 37 51 72 -16 42 -59 50
-91 18z"/>
        <path d="M1687 2742 c-35 -39 -13 -92 37 -92 39 0 59 19 59 57 0 48 -64 71
-96 35z"/>
        <path d="M4220 2740 c-38 -38 -15 -90 40 -90 29 0 60 30 60 57 0 20 -38 53
-60 53 -11 0 -29 -9 -40 -20z"/>
        <path d="M4397 2742 c-35 -38 -10 -92 42 -92 34 0 51 17 51 50 0 52 -60 78
-93 42z"/>
        <path d="M4900 2140 c-26 -26 -26 -81 -2 -103 43 -39 122 -3 122 54 0 57 -80
89 -120 49z"/>
        <path d="M991 2134 c-12 -15 -21 -34 -21 -44 0 -34 39 -70 75 -70 65 0 93 72
48 123 -25 27 -78 22 -102 -9z"/>
    </g>
</svg>
